<mxfile host="Electron" modified="2024-03-21T04:30:32.685Z" agent="Mozilla/5.0 (Windows NT 10.0; Win64; x64) AppleWebKit/537.36 (KHTML, like Gecko) draw.io/23.1.5 Chrome/120.0.6099.109 Electron/28.1.0 Safari/537.36" etag="MdUkNT1bK4Sm4Ejn1m80" version="23.1.5" type="device" pages="2">
  <diagram name="Page-1" id="VMcUH-W0fOCIiHo-XHff">
    <mxGraphModel dx="1050" dy="703" grid="1" gridSize="10" guides="1" tooltips="1" connect="1" arrows="1" fold="1" page="1" pageScale="1" pageWidth="850" pageHeight="1100" math="0" shadow="0">
      <root>
        <mxCell id="0" />
        <mxCell id="1" parent="0" />
        <mxCell id="TUqfr2V-pYiWvruT0xh--2" value="" style="rounded=0;whiteSpace=wrap;html=1;" parent="1" vertex="1">
          <mxGeometry x="80" y="300" width="60" height="60" as="geometry" />
        </mxCell>
        <mxCell id="TUqfr2V-pYiWvruT0xh--3" value="start" style="text;html=1;align=center;verticalAlign=middle;whiteSpace=wrap;rounded=0;" parent="1" vertex="1">
          <mxGeometry x="80" y="315" width="60" height="30" as="geometry" />
        </mxCell>
        <mxCell id="TUqfr2V-pYiWvruT0xh--4" value="" style="rounded=0;whiteSpace=wrap;html=1;" parent="1" vertex="1">
          <mxGeometry x="140" y="300" width="120" height="60" as="geometry" />
        </mxCell>
        <mxCell id="TUqfr2V-pYiWvruT0xh--5" value="One byte" style="text;html=1;align=center;verticalAlign=middle;whiteSpace=wrap;rounded=0;" parent="1" vertex="1">
          <mxGeometry x="170" y="315" width="60" height="30" as="geometry" />
        </mxCell>
        <mxCell id="TUqfr2V-pYiWvruT0xh--6" value="least significant bits indicate where to write" style="text;html=1;align=center;verticalAlign=middle;whiteSpace=wrap;rounded=0;" parent="1" vertex="1">
          <mxGeometry x="150" y="370" width="100" height="30" as="geometry" />
        </mxCell>
        <mxCell id="TUqfr2V-pYiWvruT0xh--8" value="stop" style="rounded=0;whiteSpace=wrap;html=1;" parent="1" vertex="1">
          <mxGeometry x="500" y="300" width="60" height="60" as="geometry" />
        </mxCell>
        <mxCell id="TUqfr2V-pYiWvruT0xh--10" value="two byte" style="rounded=0;whiteSpace=wrap;html=1;" parent="1" vertex="1">
          <mxGeometry x="260" y="300" width="120" height="60" as="geometry" />
        </mxCell>
        <mxCell id="TUqfr2V-pYiWvruT0xh--11" value="four byte" style="rounded=0;whiteSpace=wrap;html=1;" parent="1" vertex="1">
          <mxGeometry x="380" y="300" width="120" height="60" as="geometry" />
        </mxCell>
        <mxCell id="TUqfr2V-pYiWvruT0xh--12" value="Address" style="text;html=1;align=center;verticalAlign=middle;whiteSpace=wrap;rounded=0;" parent="1" vertex="1">
          <mxGeometry x="290" y="370" width="60" height="30" as="geometry" />
        </mxCell>
      </root>
    </mxGraphModel>
  </diagram>
  <diagram id="VPGqi4XG18k6otcXNDnQ" name="Page-2">
    <mxGraphModel dx="875" dy="586" grid="1" gridSize="10" guides="1" tooltips="1" connect="1" arrows="1" fold="1" page="1" pageScale="1" pageWidth="850" pageHeight="1100" math="0" shadow="0">
      <root>
        <mxCell id="0" />
        <mxCell id="1" parent="0" />
        <mxCell id="9IiZhPIBmWY6NruAAwAY-48" value="" style="group" vertex="1" connectable="0" parent="1">
          <mxGeometry x="100" y="490" width="629" height="40" as="geometry" />
        </mxCell>
        <mxCell id="9IiZhPIBmWY6NruAAwAY-1" value="&lt;b&gt;&lt;font style=&quot;font-size: 25px;&quot;&gt;IDLE&lt;/font&gt;&lt;/b&gt;" style="text;html=1;align=center;verticalAlign=middle;whiteSpace=wrap;rounded=0;" vertex="1" parent="9IiZhPIBmWY6NruAAwAY-48">
          <mxGeometry width="60" height="40" as="geometry" />
        </mxCell>
        <mxCell id="9IiZhPIBmWY6NruAAwAY-2" value="" style="endArrow=none;html=1;rounded=0;strokeWidth=3;" edge="1" parent="9IiZhPIBmWY6NruAAwAY-48">
          <mxGeometry width="50" height="50" relative="1" as="geometry">
            <mxPoint as="sourcePoint" />
            <mxPoint x="60" as="targetPoint" />
          </mxGeometry>
        </mxCell>
        <mxCell id="9IiZhPIBmWY6NruAAwAY-3" value="" style="endArrow=none;html=1;rounded=0;strokeWidth=3;" edge="1" parent="9IiZhPIBmWY6NruAAwAY-48">
          <mxGeometry width="50" height="50" relative="1" as="geometry">
            <mxPoint x="60" as="sourcePoint" />
            <mxPoint x="70" y="20" as="targetPoint" />
          </mxGeometry>
        </mxCell>
        <mxCell id="9IiZhPIBmWY6NruAAwAY-4" value="" style="endArrow=none;html=1;rounded=0;strokeWidth=3;" edge="1" parent="9IiZhPIBmWY6NruAAwAY-48">
          <mxGeometry width="50" height="50" relative="1" as="geometry">
            <mxPoint x="70" y="20" as="sourcePoint" />
            <mxPoint x="80" as="targetPoint" />
          </mxGeometry>
        </mxCell>
        <mxCell id="9IiZhPIBmWY6NruAAwAY-5" value="" style="endArrow=none;html=1;rounded=0;strokeWidth=3;" edge="1" parent="9IiZhPIBmWY6NruAAwAY-48">
          <mxGeometry width="50" height="50" relative="1" as="geometry">
            <mxPoint x="70" y="20" as="sourcePoint" />
            <mxPoint x="80" y="40" as="targetPoint" />
          </mxGeometry>
        </mxCell>
        <mxCell id="9IiZhPIBmWY6NruAAwAY-6" value="" style="endArrow=none;html=1;rounded=0;strokeWidth=3;" edge="1" parent="9IiZhPIBmWY6NruAAwAY-48">
          <mxGeometry width="50" height="50" relative="1" as="geometry">
            <mxPoint x="80" as="sourcePoint" />
            <mxPoint x="140" as="targetPoint" />
          </mxGeometry>
        </mxCell>
        <mxCell id="9IiZhPIBmWY6NruAAwAY-7" value="" style="endArrow=none;html=1;rounded=0;strokeWidth=3;" edge="1" parent="9IiZhPIBmWY6NruAAwAY-48">
          <mxGeometry width="50" height="50" relative="1" as="geometry">
            <mxPoint x="80" y="40" as="sourcePoint" />
            <mxPoint x="140" y="40" as="targetPoint" />
          </mxGeometry>
        </mxCell>
        <mxCell id="9IiZhPIBmWY6NruAAwAY-8" value="" style="endArrow=none;html=1;rounded=0;strokeWidth=3;" edge="1" parent="9IiZhPIBmWY6NruAAwAY-48">
          <mxGeometry width="50" height="50" relative="1" as="geometry">
            <mxPoint x="140" as="sourcePoint" />
            <mxPoint x="150" y="20" as="targetPoint" />
          </mxGeometry>
        </mxCell>
        <mxCell id="9IiZhPIBmWY6NruAAwAY-9" value="" style="endArrow=none;html=1;rounded=0;strokeWidth=3;" edge="1" parent="9IiZhPIBmWY6NruAAwAY-48">
          <mxGeometry width="50" height="50" relative="1" as="geometry">
            <mxPoint x="140" y="40" as="sourcePoint" />
            <mxPoint x="150" y="20" as="targetPoint" />
          </mxGeometry>
        </mxCell>
        <mxCell id="9IiZhPIBmWY6NruAAwAY-10" value="" style="endArrow=none;html=1;rounded=0;strokeWidth=3;" edge="1" parent="9IiZhPIBmWY6NruAAwAY-48">
          <mxGeometry width="50" height="50" relative="1" as="geometry">
            <mxPoint x="150" y="20" as="sourcePoint" />
            <mxPoint x="160" as="targetPoint" />
          </mxGeometry>
        </mxCell>
        <mxCell id="9IiZhPIBmWY6NruAAwAY-11" value="" style="endArrow=none;html=1;rounded=0;strokeWidth=3;" edge="1" parent="9IiZhPIBmWY6NruAAwAY-48">
          <mxGeometry width="50" height="50" relative="1" as="geometry">
            <mxPoint x="150" y="20" as="sourcePoint" />
            <mxPoint x="160" y="40" as="targetPoint" />
          </mxGeometry>
        </mxCell>
        <mxCell id="9IiZhPIBmWY6NruAAwAY-12" value="" style="endArrow=none;html=1;rounded=0;strokeWidth=3;" edge="1" parent="9IiZhPIBmWY6NruAAwAY-48">
          <mxGeometry width="50" height="50" relative="1" as="geometry">
            <mxPoint x="160" as="sourcePoint" />
            <mxPoint x="220" as="targetPoint" />
          </mxGeometry>
        </mxCell>
        <mxCell id="9IiZhPIBmWY6NruAAwAY-13" value="" style="endArrow=none;html=1;rounded=0;strokeWidth=3;" edge="1" parent="9IiZhPIBmWY6NruAAwAY-48">
          <mxGeometry width="50" height="50" relative="1" as="geometry">
            <mxPoint x="220" as="sourcePoint" />
            <mxPoint x="250" as="targetPoint" />
          </mxGeometry>
        </mxCell>
        <mxCell id="9IiZhPIBmWY6NruAAwAY-14" value="" style="endArrow=none;html=1;rounded=0;strokeWidth=3;" edge="1" parent="9IiZhPIBmWY6NruAAwAY-48">
          <mxGeometry width="50" height="50" relative="1" as="geometry">
            <mxPoint x="250" as="sourcePoint" />
            <mxPoint x="260" y="20" as="targetPoint" />
          </mxGeometry>
        </mxCell>
        <mxCell id="9IiZhPIBmWY6NruAAwAY-15" value="" style="endArrow=none;html=1;rounded=0;strokeWidth=3;" edge="1" parent="9IiZhPIBmWY6NruAAwAY-48">
          <mxGeometry width="50" height="50" relative="1" as="geometry">
            <mxPoint x="250" y="40" as="sourcePoint" />
            <mxPoint x="260" y="20" as="targetPoint" />
          </mxGeometry>
        </mxCell>
        <mxCell id="9IiZhPIBmWY6NruAAwAY-16" value="" style="endArrow=none;html=1;rounded=0;strokeWidth=3;" edge="1" parent="9IiZhPIBmWY6NruAAwAY-48">
          <mxGeometry width="50" height="50" relative="1" as="geometry">
            <mxPoint x="260" y="20" as="sourcePoint" />
            <mxPoint x="270" as="targetPoint" />
          </mxGeometry>
        </mxCell>
        <mxCell id="9IiZhPIBmWY6NruAAwAY-17" value="" style="endArrow=none;html=1;rounded=0;strokeWidth=3;" edge="1" parent="9IiZhPIBmWY6NruAAwAY-48">
          <mxGeometry width="50" height="50" relative="1" as="geometry">
            <mxPoint x="260" y="20" as="sourcePoint" />
            <mxPoint x="270" y="40" as="targetPoint" />
          </mxGeometry>
        </mxCell>
        <mxCell id="9IiZhPIBmWY6NruAAwAY-18" value="" style="endArrow=none;html=1;rounded=0;strokeWidth=3;" edge="1" parent="9IiZhPIBmWY6NruAAwAY-48">
          <mxGeometry width="50" height="50" relative="1" as="geometry">
            <mxPoint x="160" y="40" as="sourcePoint" />
            <mxPoint x="220" y="40" as="targetPoint" />
          </mxGeometry>
        </mxCell>
        <mxCell id="9IiZhPIBmWY6NruAAwAY-19" value="" style="endArrow=none;html=1;rounded=0;strokeWidth=3;" edge="1" parent="9IiZhPIBmWY6NruAAwAY-48">
          <mxGeometry width="50" height="50" relative="1" as="geometry">
            <mxPoint x="220" y="40" as="sourcePoint" />
            <mxPoint x="250" y="40" as="targetPoint" />
          </mxGeometry>
        </mxCell>
        <mxCell id="9IiZhPIBmWY6NruAAwAY-20" value="" style="endArrow=none;html=1;rounded=0;strokeWidth=3;" edge="1" parent="9IiZhPIBmWY6NruAAwAY-48">
          <mxGeometry width="50" height="50" relative="1" as="geometry">
            <mxPoint x="270" as="sourcePoint" />
            <mxPoint x="330" as="targetPoint" />
          </mxGeometry>
        </mxCell>
        <mxCell id="9IiZhPIBmWY6NruAAwAY-21" value="" style="endArrow=none;html=1;rounded=0;strokeWidth=3;" edge="1" parent="9IiZhPIBmWY6NruAAwAY-48">
          <mxGeometry width="50" height="50" relative="1" as="geometry">
            <mxPoint x="330" as="sourcePoint" />
            <mxPoint x="390" as="targetPoint" />
          </mxGeometry>
        </mxCell>
        <mxCell id="9IiZhPIBmWY6NruAAwAY-22" value="" style="endArrow=none;html=1;rounded=0;strokeWidth=3;" edge="1" parent="9IiZhPIBmWY6NruAAwAY-48">
          <mxGeometry width="50" height="50" relative="1" as="geometry">
            <mxPoint x="390" as="sourcePoint" />
            <mxPoint x="400" y="20" as="targetPoint" />
          </mxGeometry>
        </mxCell>
        <mxCell id="9IiZhPIBmWY6NruAAwAY-23" value="" style="endArrow=none;html=1;rounded=0;strokeWidth=3;" edge="1" parent="9IiZhPIBmWY6NruAAwAY-48">
          <mxGeometry width="50" height="50" relative="1" as="geometry">
            <mxPoint x="390" y="40" as="sourcePoint" />
            <mxPoint x="400" y="20" as="targetPoint" />
          </mxGeometry>
        </mxCell>
        <mxCell id="9IiZhPIBmWY6NruAAwAY-24" value="" style="endArrow=none;html=1;rounded=0;strokeWidth=3;" edge="1" parent="9IiZhPIBmWY6NruAAwAY-48">
          <mxGeometry width="50" height="50" relative="1" as="geometry">
            <mxPoint x="270" y="40" as="sourcePoint" />
            <mxPoint x="330" y="40" as="targetPoint" />
          </mxGeometry>
        </mxCell>
        <mxCell id="9IiZhPIBmWY6NruAAwAY-25" value="" style="endArrow=none;html=1;rounded=0;strokeWidth=3;" edge="1" parent="9IiZhPIBmWY6NruAAwAY-48">
          <mxGeometry width="50" height="50" relative="1" as="geometry">
            <mxPoint x="330" y="40" as="sourcePoint" />
            <mxPoint x="390" y="40" as="targetPoint" />
          </mxGeometry>
        </mxCell>
        <mxCell id="9IiZhPIBmWY6NruAAwAY-26" value="" style="endArrow=none;html=1;rounded=0;strokeWidth=3;" edge="1" parent="9IiZhPIBmWY6NruAAwAY-48">
          <mxGeometry width="50" height="50" relative="1" as="geometry">
            <mxPoint x="400" y="20" as="sourcePoint" />
            <mxPoint x="410" as="targetPoint" />
          </mxGeometry>
        </mxCell>
        <mxCell id="9IiZhPIBmWY6NruAAwAY-27" value="" style="endArrow=none;html=1;rounded=0;strokeWidth=3;" edge="1" parent="9IiZhPIBmWY6NruAAwAY-48">
          <mxGeometry width="50" height="50" relative="1" as="geometry">
            <mxPoint x="400" y="20" as="sourcePoint" />
            <mxPoint x="410" y="40" as="targetPoint" />
          </mxGeometry>
        </mxCell>
        <mxCell id="9IiZhPIBmWY6NruAAwAY-28" value="" style="endArrow=none;html=1;rounded=0;strokeWidth=3;" edge="1" parent="9IiZhPIBmWY6NruAAwAY-48">
          <mxGeometry width="50" height="50" relative="1" as="geometry">
            <mxPoint x="410" as="sourcePoint" />
            <mxPoint x="470" as="targetPoint" />
          </mxGeometry>
        </mxCell>
        <mxCell id="9IiZhPIBmWY6NruAAwAY-29" value="" style="endArrow=none;html=1;rounded=0;strokeWidth=3;" edge="1" parent="9IiZhPIBmWY6NruAAwAY-48">
          <mxGeometry width="50" height="50" relative="1" as="geometry">
            <mxPoint x="470" as="sourcePoint" />
            <mxPoint x="500" as="targetPoint" />
          </mxGeometry>
        </mxCell>
        <mxCell id="9IiZhPIBmWY6NruAAwAY-30" value="" style="endArrow=none;html=1;rounded=0;strokeWidth=3;" edge="1" parent="9IiZhPIBmWY6NruAAwAY-48">
          <mxGeometry width="50" height="50" relative="1" as="geometry">
            <mxPoint x="500" as="sourcePoint" />
            <mxPoint x="510" y="20" as="targetPoint" />
          </mxGeometry>
        </mxCell>
        <mxCell id="9IiZhPIBmWY6NruAAwAY-31" value="" style="endArrow=none;html=1;rounded=0;strokeWidth=3;" edge="1" parent="9IiZhPIBmWY6NruAAwAY-48">
          <mxGeometry width="50" height="50" relative="1" as="geometry">
            <mxPoint x="500" y="40" as="sourcePoint" />
            <mxPoint x="510" y="20" as="targetPoint" />
          </mxGeometry>
        </mxCell>
        <mxCell id="9IiZhPIBmWY6NruAAwAY-32" value="" style="endArrow=none;html=1;rounded=0;strokeWidth=3;" edge="1" parent="9IiZhPIBmWY6NruAAwAY-48">
          <mxGeometry width="50" height="50" relative="1" as="geometry">
            <mxPoint x="510" y="20" as="sourcePoint" />
            <mxPoint x="520" as="targetPoint" />
          </mxGeometry>
        </mxCell>
        <mxCell id="9IiZhPIBmWY6NruAAwAY-33" value="" style="endArrow=none;html=1;rounded=0;strokeWidth=3;" edge="1" parent="9IiZhPIBmWY6NruAAwAY-48">
          <mxGeometry width="50" height="50" relative="1" as="geometry">
            <mxPoint x="510" y="20" as="sourcePoint" />
            <mxPoint x="520" y="40" as="targetPoint" />
          </mxGeometry>
        </mxCell>
        <mxCell id="9IiZhPIBmWY6NruAAwAY-34" value="" style="endArrow=none;html=1;rounded=0;strokeWidth=3;" edge="1" parent="9IiZhPIBmWY6NruAAwAY-48">
          <mxGeometry width="50" height="50" relative="1" as="geometry">
            <mxPoint x="410" y="40" as="sourcePoint" />
            <mxPoint x="470" y="40" as="targetPoint" />
          </mxGeometry>
        </mxCell>
        <mxCell id="9IiZhPIBmWY6NruAAwAY-35" value="" style="endArrow=none;html=1;rounded=0;strokeWidth=3;" edge="1" parent="9IiZhPIBmWY6NruAAwAY-48">
          <mxGeometry width="50" height="50" relative="1" as="geometry">
            <mxPoint x="470" y="40" as="sourcePoint" />
            <mxPoint x="500" y="40" as="targetPoint" />
          </mxGeometry>
        </mxCell>
        <mxCell id="9IiZhPIBmWY6NruAAwAY-36" value="" style="endArrow=none;html=1;rounded=0;strokeWidth=3;" edge="1" parent="9IiZhPIBmWY6NruAAwAY-48">
          <mxGeometry width="50" height="50" relative="1" as="geometry">
            <mxPoint x="520" as="sourcePoint" />
            <mxPoint x="549" as="targetPoint" />
          </mxGeometry>
        </mxCell>
        <mxCell id="9IiZhPIBmWY6NruAAwAY-37" value="" style="endArrow=none;html=1;rounded=0;strokeWidth=3;" edge="1" parent="9IiZhPIBmWY6NruAAwAY-48">
          <mxGeometry width="50" height="50" relative="1" as="geometry">
            <mxPoint x="520" y="40" as="sourcePoint" />
            <mxPoint x="549" y="40" as="targetPoint" />
          </mxGeometry>
        </mxCell>
        <mxCell id="9IiZhPIBmWY6NruAAwAY-38" value="&lt;b&gt;&lt;font style=&quot;font-size: 25px;&quot;&gt;CTRL&lt;/font&gt;&lt;/b&gt;" style="text;html=1;align=center;verticalAlign=middle;whiteSpace=wrap;rounded=0;" vertex="1" parent="9IiZhPIBmWY6NruAAwAY-48">
          <mxGeometry x="80" width="60" height="40" as="geometry" />
        </mxCell>
        <mxCell id="9IiZhPIBmWY6NruAAwAY-39" value="&lt;b&gt;&lt;font style=&quot;font-size: 25px;&quot;&gt;ADDR0&lt;/font&gt;&lt;/b&gt;" style="text;html=1;align=center;verticalAlign=middle;whiteSpace=wrap;rounded=0;" vertex="1" parent="9IiZhPIBmWY6NruAAwAY-48">
          <mxGeometry x="159" width="90" height="40" as="geometry" />
        </mxCell>
        <mxCell id="9IiZhPIBmWY6NruAAwAY-40" value="&lt;b&gt;&lt;font style=&quot;font-size: 25px;&quot;&gt;DATA0&lt;/font&gt;&lt;/b&gt;" style="text;html=1;align=center;verticalAlign=middle;whiteSpace=wrap;rounded=0;" vertex="1" parent="9IiZhPIBmWY6NruAAwAY-48">
          <mxGeometry x="270" width="120" height="40" as="geometry" />
        </mxCell>
        <mxCell id="9IiZhPIBmWY6NruAAwAY-41" value="&lt;b&gt;&lt;font style=&quot;font-size: 25px;&quot;&gt;ADDR1&lt;/font&gt;&lt;/b&gt;" style="text;html=1;align=center;verticalAlign=middle;whiteSpace=wrap;rounded=0;" vertex="1" parent="9IiZhPIBmWY6NruAAwAY-48">
          <mxGeometry x="409" width="90" height="40" as="geometry" />
        </mxCell>
        <mxCell id="9IiZhPIBmWY6NruAAwAY-42" value="&lt;b&gt;&lt;font style=&quot;font-size: 25px;&quot;&gt;...&lt;/font&gt;&lt;/b&gt;" style="text;html=1;align=center;verticalAlign=middle;whiteSpace=wrap;rounded=0;" vertex="1" parent="9IiZhPIBmWY6NruAAwAY-48">
          <mxGeometry x="519" width="30" height="30" as="geometry" />
        </mxCell>
        <mxCell id="9IiZhPIBmWY6NruAAwAY-43" value="" style="endArrow=none;html=1;rounded=0;strokeWidth=3;" edge="1" parent="9IiZhPIBmWY6NruAAwAY-48">
          <mxGeometry width="50" height="50" relative="1" as="geometry">
            <mxPoint x="549" as="sourcePoint" />
            <mxPoint x="559" y="20" as="targetPoint" />
          </mxGeometry>
        </mxCell>
        <mxCell id="9IiZhPIBmWY6NruAAwAY-44" value="" style="endArrow=none;html=1;rounded=0;strokeWidth=3;" edge="1" parent="9IiZhPIBmWY6NruAAwAY-48">
          <mxGeometry width="50" height="50" relative="1" as="geometry">
            <mxPoint x="549" y="40" as="sourcePoint" />
            <mxPoint x="559" y="20" as="targetPoint" />
          </mxGeometry>
        </mxCell>
        <mxCell id="9IiZhPIBmWY6NruAAwAY-45" value="" style="endArrow=none;html=1;rounded=0;strokeWidth=3;" edge="1" parent="9IiZhPIBmWY6NruAAwAY-48">
          <mxGeometry width="50" height="50" relative="1" as="geometry">
            <mxPoint x="559" y="20" as="sourcePoint" />
            <mxPoint x="569" as="targetPoint" />
          </mxGeometry>
        </mxCell>
        <mxCell id="9IiZhPIBmWY6NruAAwAY-46" value="&lt;b&gt;&lt;font style=&quot;font-size: 25px;&quot;&gt;IDLE&lt;/font&gt;&lt;/b&gt;" style="text;html=1;align=center;verticalAlign=middle;whiteSpace=wrap;rounded=0;" vertex="1" parent="9IiZhPIBmWY6NruAAwAY-48">
          <mxGeometry x="569" width="60" height="40" as="geometry" />
        </mxCell>
        <mxCell id="9IiZhPIBmWY6NruAAwAY-47" value="" style="endArrow=none;html=1;rounded=0;strokeWidth=3;" edge="1" parent="9IiZhPIBmWY6NruAAwAY-48">
          <mxGeometry width="50" height="50" relative="1" as="geometry">
            <mxPoint x="569" as="sourcePoint" />
            <mxPoint x="629" as="targetPoint" />
          </mxGeometry>
        </mxCell>
        <mxCell id="9IiZhPIBmWY6NruAAwAY-51" value="" style="shape=curlyBracket;whiteSpace=wrap;html=1;rounded=1;flipH=1;labelPosition=right;verticalLabelPosition=middle;align=left;verticalAlign=middle;direction=north;strokeWidth=3;" vertex="1" parent="1">
          <mxGeometry x="170" y="540" width="80" height="10" as="geometry" />
        </mxCell>
        <mxCell id="9IiZhPIBmWY6NruAAwAY-52" value="&lt;font style=&quot;font-size: 20px;&quot;&gt;1 Byte&lt;/font&gt;" style="text;strokeColor=none;fillColor=none;html=1;fontSize=24;fontStyle=0;verticalAlign=middle;align=center;" vertex="1" parent="1">
          <mxGeometry x="179.5" y="550" width="61" height="20" as="geometry" />
        </mxCell>
        <mxCell id="9IiZhPIBmWY6NruAAwAY-53" value="" style="shape=curlyBracket;whiteSpace=wrap;html=1;rounded=1;flipH=1;labelPosition=right;verticalLabelPosition=middle;align=left;verticalAlign=middle;direction=north;strokeWidth=3;" vertex="1" parent="1">
          <mxGeometry x="250" y="540" width="110" height="10" as="geometry" />
        </mxCell>
        <mxCell id="9IiZhPIBmWY6NruAAwAY-54" value="&lt;font style=&quot;font-size: 20px;&quot;&gt;2 Bytes&lt;/font&gt;" style="text;strokeColor=none;fillColor=none;html=1;fontSize=24;fontStyle=0;verticalAlign=middle;align=center;" vertex="1" parent="1">
          <mxGeometry x="272.25" y="550" width="65.5" height="20" as="geometry" />
        </mxCell>
        <mxCell id="9IiZhPIBmWY6NruAAwAY-55" value="" style="shape=curlyBracket;whiteSpace=wrap;html=1;rounded=1;flipH=1;labelPosition=right;verticalLabelPosition=middle;align=left;verticalAlign=middle;direction=north;strokeWidth=3;" vertex="1" parent="1">
          <mxGeometry x="360" y="540" width="140" height="10" as="geometry" />
        </mxCell>
        <mxCell id="9IiZhPIBmWY6NruAAwAY-56" value="&lt;font style=&quot;font-size: 20px;&quot;&gt;4 Bytes&lt;/font&gt;" style="text;strokeColor=none;fillColor=none;html=1;fontSize=24;fontStyle=0;verticalAlign=middle;align=center;" vertex="1" parent="1">
          <mxGeometry x="397.25" y="550" width="65.5" height="20" as="geometry" />
        </mxCell>
      </root>
    </mxGraphModel>
  </diagram>
</mxfile>
